<svg xmlns="http://www.w3.org/2000/svg" viewBox="0 0 84 84" width="84" height="84">
	<defs>
		<clipPath clipPathUnits="userSpaceOnUse" id="cp1">
			<path d="M42,68.14c16.57,0 30,-13.43 30,-30c0,-16.57 -13.43,-30 -30,-30c-16.57,0 -30,13.43 -30,30c0,16.57 13.43,30 30,30z" />
		</clipPath>
		<clipPath clipPathUnits="userSpaceOnUse" id="cp2">
			<path d="M30,39.98c0,0 -3.66,4.18 -2.92,5.45c0.73,1.27 6.2,0.21 6.2,0.21l21.29,-14.23c0.66,0.69 1.46,0.52 1.78,-0.39l-0.02,0.06c0.32,-0.9 0.19,-2.3 -0.29,-3.13c0,0 0.69,-0.17 -0.19,-0.33l-1.75,-0.33c-0.88,-0.17 -2.22,0.06 -3,0.51zM25.49,38.21l-0.09,0.16c-0.17,0.31 -0.14,0.8 0.07,1.09l2.48,3.42v0l4.51,-2.6v0l-6.05,-2.4c-0.33,-0.13 -0.74,0.01 -0.92,0.33zM33.31,49.83l0.95,-6.44v0l-4.51,2.6v0l1.72,3.86c0.15,0.33 0.55,0.6 0.91,0.61l0.18,0c0.36,0.01 0.69,-0.27 0.74,-0.63zM30.88,21.58l-0.74,0.41c-0.31,0.17 -0.62,0.6 -0.69,0.95l-0.05,0.26c-0.07,0.35 0.03,0.88 0.23,1.18l7.77,12v0l9.24,-5.33v0l-14.64,-9.44c-0.3,-0.19 -0.8,-0.21 -1.11,-0.04zM50.22,53.18l-0.86,-17.4v0l-9.24,5.33v0l6.51,12.73c0.16,0.32 0.57,0.67 0.91,0.79l0.25,0.09c0.34,0.12 0.86,0.06 1.17,-0.12l0.73,-0.44c0.31,-0.18 0.54,-0.62 0.53,-0.98z" />
		</clipPath>
	</defs>
	<style>
		tspan { white-space:pre }
		.shp0 { fill: #000000 } 
		.shp1 { fill: #2196f3;stroke: #42a5f5;stroke-width: 3.75 } 
		.shp2 { fill: none;stroke: #42a5f5;stroke-linecap:square;stroke-width: 3.75 } 
		.shp3 { fill: none;stroke: #42a5f5;stroke-linecap:round;stroke-linejoin:round;stroke-width: 3.75 } 
		.shp4 { fill: #ffffff } 
		.shp5 { fill: #ebecf2 } 
		.shp6 { fill: #dee1e3 } 
		.shp7 { opacity: 0.4;fill: #dee1e3 } 
		.shp8 { fill: #c5c6cc } 
	</style>
	<g id="Logo copy">
		<g id="Group 3 copy">
			<path id="Oval copy" class="shp0" d="M42.38,68.14c12.22,0 22.13,-9.91 22.13,-22.13c0,-12.22 -9.91,-22.13 -22.12,-22.13c-12.22,0 -22.12,9.91 -22.12,22.13c0,12.22 9.91,22.13 22.13,22.13z" />
			<path id="Oval copy" class="shp1" d="M42,68.14c16.57,0 30,-13.43 30,-30c0,-16.57 -13.43,-30 -30,-30c-16.57,0 -30,13.43 -30,30c0,16.57 13.43,30 30,30z" />
			<g id="Mask by Oval copy" clip-path="url(#cp1)">
				<g id="Group 2 copy">
					<path id="Line copy" class="shp2" d="M68.54,31.02h-53.82" />
					<path id="Line copy" class="shp2" d="M68.54,46.77h-53.82" />
					<path id="Path 2 copy" class="shp3" d="M41.25,12.64c0,0 -9.96,11.58 -9.75,26.25c0.22,14.67 9.75,24.75 9.75,24.75" />
					<path id="Path 2 copy" class="shp3" d="M42,63.64c0,0 9.53,-10.08 9.75,-24.75c0.22,-14.67 -9.75,-26.25 -9.75,-26.25" />
				</g>
			</g>
		</g>
		<g id="Group 7 copy">
			<g id="Plane Icon copy">
				<path id="Combined Shape copy" class="shp4" d="M30,39.98c0,0 -3.66,4.18 -2.92,5.45c0.73,1.27 6.2,0.21 6.2,0.21l21.29,-14.23c0.66,0.69 1.46,0.52 1.78,-0.39l-0.02,0.06c0.32,-0.9 0.19,-2.3 -0.29,-3.13c0,0 0.69,-0.17 -0.19,-0.33l-1.75,-0.33c-0.88,-0.17 -2.22,0.06 -3,0.51zM25.49,38.21l-0.09,0.16c-0.17,0.31 -0.14,0.8 0.07,1.09l2.48,3.42v0l4.51,-2.6v0l-6.05,-2.4c-0.33,-0.13 -0.74,0.01 -0.92,0.33zM33.31,49.83l0.95,-6.44v0l-4.51,2.6v0l1.72,3.86c0.15,0.33 0.55,0.6 0.91,0.61l0.18,0c0.36,0.01 0.69,-0.27 0.74,-0.63zM30.88,21.58l-0.74,0.41c-0.31,0.17 -0.62,0.6 -0.69,0.95l-0.05,0.26c-0.07,0.35 0.03,0.88 0.23,1.18l7.77,12v0l9.24,-5.33v0l-14.64,-9.44c-0.3,-0.19 -0.8,-0.21 -1.11,-0.04zM50.22,53.18l-0.86,-17.4v0l-9.24,5.33v0l6.51,12.73c0.16,0.32 0.57,0.67 0.91,0.79l0.25,0.09c0.34,0.12 0.86,0.06 1.17,-0.12l0.73,-0.44c0.31,-0.18 0.54,-0.62 0.53,-0.98z" />
				<g id="Mask by Combined Shape copy" clip-path="url(#cp2)">
					<path id="Rectangle 7 copy" class="shp5" d="M35.79,35.13l0.65,1.13l10.75,-6.2l-0.65,-1.13z" />
					<path id="Rectangle 5 copy" class="shp6" d="M50.22,53.18l-0.86,-17.4v0l-9.24,5.33v0l6.51,12.73c0.16,0.32 0.57,0.67 0.91,0.79l0.25,0.09c0.34,0.12 0.86,0.06 1.17,-0.12l0.73,-0.44c0.31,-0.18 0.54,-0.62 0.53,-0.98z" />
					<path id="Combined Shape copy" class="shp7" d="M32.56,50.46l-0.18,0c-0.36,-0.01 -0.77,-0.28 -0.91,-0.61l-1.72,-3.86l0.09,-0.05c1.69,-0.14 3.51,-0.58 3.51,-0.58l0.69,-0.46l-0.72,4.93c-0.05,0.36 -0.38,0.64 -0.74,0.63z" />
					<path id="Combined Shape copy" class="shp8" d="M50.22,53.18l-0.86,-17.4v0l-9.24,5.33v0l6.51,12.73c0.16,0.32 0.57,0.67 0.91,0.79l0.25,0.09c0.34,0.12 0.86,0.06 1.17,-0.12l0.73,-0.44c0.31,-0.18 0.54,-0.62 0.53,-0.98zM37.51,42.93l2.17,3.76l11.29,-9.91l-0.7,-1.22z" />
					<path id="Combined Shape copy" class="shp6" d="M57.55,28.17c-0.31,0.74 -0.87,2.45 -3.16,3.77l-20.62,11.91c-2.64,1.52 -5.36,1.63 -6.71,1.54c0.01,0.02 0.02,0.03 0.03,0.05c0.73,1.27 1.61,2.86 1.61,2.86l29.79,-17.2c0,0 -0.45,-1.64 -0.93,-2.92z" />
				</g>
			</g>
		</g>
	</g>
</svg>